<svg width="100%" viewBox="0 0 680 420" role="img" xmlns="http://www.w3.org/2000/svg">
<title>KO-BOX PREDICT 2026 기술 스택</title>
<desc>데이터 수집, 저장, ML 모델링, 딥러닝, 서비스 레이어로 구성된 기술 스택 다이어그램</desc>

<text x="340" y="33" text-anchor="middle" font-family="sans-serif" font-size="15" font-weight="500" fill="#111">KO-BOX PREDICT 2026 — 기술 스택</text>

<text x="40" y="78"  font-family="sans-serif" font-size="12" fill="#666">데이터 수집</text>
<text x="40" y="158" font-family="sans-serif" font-size="12" fill="#666">저장 / DB</text>
<text x="40" y="238" font-family="sans-serif" font-size="12" fill="#666">ML 모델링</text>
<text x="40" y="318" font-family="sans-serif" font-size="12" fill="#666">딥러닝</text>
<text x="40" y="398" font-family="sans-serif" font-size="12" fill="#666">서비스</text>

<line x1="40" y1="46"  x2="640" y2="46"  stroke="#ddd" stroke-width="0.5"/>
<line x1="40" y1="126" x2="640" y2="126" stroke="#ddd" stroke-width="0.5"/>
<line x1="40" y1="206" x2="640" y2="206" stroke="#ddd" stroke-width="0.5"/>
<line x1="40" y1="286" x2="640" y2="286" stroke="#ddd" stroke-width="0.5"/>
<line x1="40" y1="366" x2="640" y2="366" stroke="#ddd" stroke-width="0.5"/>
<line x1="40" y1="416" x2="640" y2="416" stroke="#ddd" stroke-width="0.5"/>

<rect x="152" y="55" width="120" height="36" rx="4" fill="#0d9488"/>
<text x="212" y="78" text-anchor="middle" font-family="sans-serif" font-size="14" font-weight="500" fill="#fff">KOBIS API</text>
<rect x="284" y="55" width="150" height="36" rx="4" fill="#0d9488"/>
<text x="359" y="78" text-anchor="middle" font-family="sans-serif" font-size="14" font-weight="500" fill="#fff">Naver Data Lab</text>
<rect x="446" y="55" width="90"  height="36" rx="4" fill="#0d9488"/>
<text x="491" y="78" text-anchor="middle" font-family="sans-serif" font-size="14" font-weight="500" fill="#fff">Python</text>

<rect x="152" y="135" width="100" height="36" rx="4" fill="#2563eb"/>
<text x="202" y="158" text-anchor="middle" font-family="sans-serif" font-size="14" font-weight="500" fill="#fff">MySQL</text>
<rect x="266" y="135" width="90"  height="36" rx="4" fill="#2563eb"/>
<text x="311" y="158" text-anchor="middle" font-family="sans-serif" font-size="14" font-weight="500" fill="#fff">Pandas</text>
<rect x="370" y="135" width="90"  height="36" rx="4" fill="#2563eb"/>
<text x="415" y="158" text-anchor="middle" font-family="sans-serif" font-size="14" font-weight="500" fill="#fff">NumPy</text>

<rect x="152" y="215" width="100" height="36" rx="4" fill="#7c3aed"/>
<text x="202" y="238" text-anchor="middle" font-family="sans-serif" font-size="14" font-weight="500" fill="#fff">CatBoost</text>
<rect x="264" y="215" width="100" height="36" rx="4" fill="#7c3aed"/>
<text x="314" y="238" text-anchor="middle" font-family="sans-serif" font-size="14" font-weight="500" fill="#fff">XGBoost</text>
<rect x="376" y="215" width="100" height="36" rx="4" fill="#7c3aed"/>
<text x="426" y="238" text-anchor="middle" font-family="sans-serif" font-size="14" font-weight="500" fill="#fff">LightGBM</text>
<rect x="488" y="215" width="80"  height="36" rx="4" fill="#7c3aed"/>
<text x="528" y="238" text-anchor="middle" font-family="sans-serif" font-size="14" font-weight="500" fill="#fff">Optuna</text>

<rect x="152" y="295" width="100" height="36" rx="4" fill="#e11d48"/>
<text x="202" y="318" text-anchor="middle" font-family="sans-serif" font-size="14" font-weight="500" fill="#fff">PyTorch</text>
<rect x="264" y="295" width="140" height="36" rx="4" fill="#e11d48"/>
<text x="334" y="318" text-anchor="middle" font-family="sans-serif" font-size="14" font-weight="500" fill="#fff">MLP Regressor</text>
<rect x="416" y="295" width="150" height="36" rx="4" fill="#e11d48"/>
<text x="491" y="318" text-anchor="middle" font-family="sans-serif" font-size="14" font-weight="500" fill="#fff">Scikit-learn</text>

<rect x="152" y="375" width="100" height="36" rx="4" fill="#d97706"/>
<text x="202" y="398" text-anchor="middle" font-family="sans-serif" font-size="14" font-weight="500" fill="#fff">Streamlit</text>
<rect x="264" y="375" width="80"  height="36" rx="4" fill="#d97706"/>
<text x="304" y="398" text-anchor="middle" font-family="sans-serif" font-size="14" font-weight="500" fill="#fff">Plotly</text>
<rect x="356" y="375" width="80"  height="36" rx="4" fill="#d97706"/>
<text x="396" y="398" text-anchor="middle" font-family="sans-serif" font-size="14" font-weight="500" fill="#fff">Pydantic</text>
<rect x="448" y="375" width="60"  height="36" rx="4" fill="#d97706"/>
<text x="478" y="398" text-anchor="middle" font-family="sans-serif" font-size="14" font-weight="500" fill="#fff">uv</text>
<rect x="520" y="375" width="80"  height="36" rx="4" fill="#d97706"/>
<text x="560" y="398" text-anchor="middle" font-family="sans-serif" font-size="14" font-weight="500" fill="#fff">Joblib</text>

</svg>
